# https://github.com/mikedh/trimesh
v 4.99717665 4.96636820 0.55431706
v 4.65118694 -4.95060015 4.51811790
v 4.99413729 -4.51787949 4.77174187
v 2.65546751 -4.99988365 -0.83434170
v 2.79820895 -3.81781387 -4.99969292
v -2.94019961 -4.99056578 -4.60734940
v -2.16703463 -4.99757051 -3.73063946
v 2.28470945 -4.99947166 4.53920794
v 4.29116344 -2.77478957 4.99673223
v 4.77632332 -4.95355511 3.73668647
v 0.91668820 -4.87342167 -4.98796368
v 4.97696209 2.53388119 4.70791006
v 0.17740656 -4.91225243 -4.98275185
v -4.99690247 3.82281089 -4.80280256
v 4.04976892 -4.95598412 -4.99669838
v -4.95802832 -3.11951256 -4.95939398
v 4.91786337 -4.99146318 -3.02794099
v 4.85666037 4.80461645 4.96150780
v 4.86249876 4.99900961 3.69526076
v -4.99951887 4.31797647 0.50383234
v 4.47893810 -4.96221828 4.76829338
v 4.99598360 -4.66390753 -1.04851997
v -3.93282342 -4.99759102 1.96990156
v -4.99874878 3.99334455 -4.18285227
v 4.88757229 -3.28878379 -4.98476124
v -4.99994469 -1.74557590 1.79634798
v -2.98486543 -4.99405241 4.63631535
v 4.99890566 0.18808101 4.09904861
v 4.92983961 -0.52378875 4.99109983
v -1.69273484 -4.99983263 0.86734587
v -0.20148532 4.62832880 4.99972153
v 3.59970260 -3.97229433 -4.99906397
v -2.22418809 -4.67155123 4.99823761
v -2.69212770 -4.25376081 4.99956942
v -4.84562492 4.98346758 1.91409051
v -4.71868944 -4.98571205 -4.27092600
v -4.90289497 4.79677677 -4.70324135
v -4.99371815 -0.42883053 4.99841309
v 4.94468021 -1.23937190 -4.98545313
v -4.99991560 -2.47436237 -3.37834787
v 4.65786839 -4.99676752 -4.23518610
v -4.99953127 -3.63415122 -4.62927198
v 4.98524666 -4.37944078 -4.78817081
v 4.88142204 4.98891973 -4.49101448
v -4.98801088 -4.98206139 1.25666356
v -1.89923084 4.88973570 4.99875116
v -4.82711601 -3.78943896 -4.96301937
v -3.85446596 -4.99738741 3.88658595
v -3.31761169 4.99595976 4.90534258
v -4.97351503 -4.90747309 -4.32465172
v -4.96298599 4.78437233 4.90294409
v 4.99858475 -2.16585422 -4.57053280
v 4.55164289 -4.48206520 4.96608543
v -4.61188555 -4.89136553 4.96102238
v -4.96261883 -4.76840067 4.86476803
v -4.60485172 4.82212591 -4.92582750
v 4.65191793 4.98464394 -4.98287344
v 4.99703503 -4.80534315 1.55883944
v 3.70024419 4.66495085 4.99009514
v 4.76620626 -4.88852692 -4.83000803
v -3.75274014 4.73158789 -4.97996664
v 4.99992037 -1.11087298 -1.94761348
v 4.95187187 4.99796057 -3.08242416
v 4.98916245 -4.86118412 0.54703230
v 4.94661379 4.82236338 -4.88812590
v -3.72928739 -4.96811152 4.93730545
v 3.07208824 1.36291289 4.99975967
v 4.99862909 -2.10484743 4.85186863
v -4.19933414 4.98896074 -4.89468956
v -4.92825937 4.88259935 -4.38076353
v 0.40319115 4.95027876 -4.98931694
v -4.95960283 -3.93610883 4.98262978
v 1.73032546 -4.89737272 4.96683264
v 4.56959248 4.19536543 4.98761320
v -4.97102261 -4.68925619 -4.73492670
v -4.99902105 -1.96119225 4.96103144
v -4.85243797 4.91005898 -4.71540594
v -2.35116839 4.99568319 -4.79197168
v 3.86643672 4.99862576 -4.98740149
v -4.99275303 -4.40251303 -4.75287914
v -4.99783611 3.38381243 4.77794266
v -4.99224710 3.35693383 -4.99901676
v 4.96046257 -4.97524929 -3.94161916
v 4.99906111 -4.57021379 2.57350159
v 4.96732521 -4.98385382 -1.51454175
v -4.88816595 4.28529167 -4.93153572
v -4.82286167 -4.98832035 1.81591940
v -2.52720356 3.41174555 4.99989367
v -4.90442848 -4.95024586 4.89105844
v 4.91536283 -4.90985823 -4.41339779
v -4.51241732 -4.95470762 -4.79019165
v 4.89172268 -4.75250673 -4.83235216
v -4.31654978 4.87928963 -4.96383429
v 4.99172068 4.95663881 -1.84237289
v 4.78323650 3.03098631 4.99555159
v 4.63286400 -4.96959686 -4.71525764
v -1.91172981 -2.34745312 -4.99984217
v -4.94531155 3.12637305 4.97125435
v 4.51771688 -2.30698299 -4.99331379
v 4.94372749 -3.98110056 -4.91617012
v -2.22529364 -4.99867153 3.06429672
v -2.05958676 -4.99893379 -2.58966017
v -4.02847958 1.72921109 -4.99993420
v 4.68033838 -4.41697550 4.94560003
v 0.89027435 -4.99689913 -4.79335833
v 4.99738884 -4.39656925 -2.26833749
v -4.99973774 -0.02553650 -4.99357271
v 4.65668297 4.98140287 4.85118484
v 4.99885178 4.86129808 3.51761985
v -4.82851982 -4.96831131 4.42295980
v 4.98985052 -4.42612362 -3.90516567
v -4.54665756 4.96276951 4.93266535
v 4.82658005 4.95341110 4.17317486
v 4.77470684 -3.19806385 4.96795464
v -4.99509478 -4.17801285 -4.55343342
v 4.18325424 -4.97814274 4.63956547
v 4.32180214 -4.99085236 -4.91821003
v -2.54172707 4.99982977 -2.87324166
v -2.88324261 -4.91667128 -4.96259832
v 1.87996030 4.51366901 -4.99750710
v 4.66343880 -4.81664133 -4.95831251
v -4.12011623 -4.98932695 -3.93081069
v 4.99765635 4.39579296 -4.96110201
v -4.29624987 -4.93654346 4.97415638
v -2.28525162 -4.98398685 4.96703768
v 4.99468422 -0.07511392 4.93344641
v -4.32654428 -4.08046007 -4.99658966
v -4.77774000 -4.84631681 -4.88796091
v 3.63561749 3.22933960 -4.99960423
v -4.99841404 -4.89304829 2.54112291
v 4.99183798 -3.89434528 -4.48735762
v -4.71287823 -1.00456846 -4.99853182
v -4.67518854 4.98980951 4.14195728
v 4.97679710 -4.93020391 -1.51321483
v 4.68618059 -4.90136814 4.75287676
v 4.98625612 -4.54821634 -4.31825352
v 4.90965986 -4.34478521 -4.96731520
v 4.77309752 -4.98764563 0.80994040
v 3.99464488 -0.72257465 4.99977779
v 1.74376345 4.91976976 4.99854279
v -4.88908148 4.11900854 4.99321413
v -4.99163866 -4.71247625 -3.85918903
v 3.13099432 -4.99765587 4.20939875
v -4.46290922 -4.99481678 0.67012483
v 4.50886917 4.99975014 -0.76760525
v 4.92275667 3.77768397 4.98415756
v -4.99951315 -3.19926429 0.59082687
v 4.98893452 -4.89199066 3.37501168
v -4.87336493 -4.65241480 -4.89317226
v -2.19739842 4.99913025 3.10276031
v -4.99481535 -3.35666609 4.76541758
v -3.92012620 4.93083477 -4.94683266
v -1.55889976 -4.99167252 4.93144417
v 4.99979258 2.98924446 -4.29868984
v -1.03117418 4.99812603 4.95541477
v 4.97812653 -2.54317665 4.95437002
v -0.88359284 4.99902582 4.09166336
v 4.99889374 -3.34482622 4.44027567
v -1.89671159 -1.69889188 -4.99994421
v 4.71941280 1.53972816 4.99529028
v 4.87619209 4.99929762 -3.57304335
v 0.69873065 -2.69358516 -4.99997711
v 4.22320747 -4.79582882 4.98575544
v -4.98548889 -4.87186432 -2.38108587
v -4.89572239 4.95346117 2.96251345
v 4.99840355 0.52963781 -4.90050745
v -4.77332926 -4.99087286 -0.55858314
v 4.98156452 -4.79771948 -3.22357583
v -1.77707553 -4.59721470 -4.98849535
v -4.99711084 -4.77355242 3.51371527
v 3.69417644 -4.90183210 4.94052649
v -4.97321558 -4.57604265 4.87554359
v 3.65304780 -4.99638844 4.17549801
v -3.86671162 4.89850664 4.97390223
v 4.51448917 -4.98387098 3.29422545
v 3.59164548 -4.99985409 -4.85770035
v -1.50953496 -4.99889898 -3.36742568
v 4.79757166 -2.07498264 -4.98897552
v -4.15184021 4.56972742 -4.98231602
v -4.99719000 4.81474352 4.55050135
v 4.91180086 4.63686514 4.97796106
v -4.20001125 4.99874878 2.53274393
v -4.58218050 4.99707460 4.44545698
v 4.93826389 4.68569613 4.93006468
v -4.99872780 4.61906958 3.49859071
v 3.85833287 -4.98615599 4.89071035
v -1.04102111 4.81297398 -4.99670172
v -4.64797401 -3.93870115 -4.99379492
v 0.48339882 -4.58463240 -4.99891996
v -4.79459286 4.96946049 4.06271029
v 3.86690521 -4.65703630 4.99875927
v 3.82813525 1.04366660 -4.99943113
v -4.47873831 -4.90548849 -4.94290113
v 4.99476147 -2.80926180 -4.66464996
v -3.59441257 -4.99317312 4.49840117
v 0.11654750 -4.94596195 -4.95640755
v -4.84377813 4.95096397 -4.59978676
v -4.11948442 4.99815941 3.69277811
v -4.87349463 4.98841095 -3.66891122
v -1.63824415 4.88036919 -4.99536037
v 4.93805122 -4.56469107 -4.84732771
v -4.73639059 3.97863173 -4.99048138
v -4.97856045 -4.77852154 4.74427176
v -4.67364216 -4.93163395 -4.79634809
v 4.97758722 4.98967266 -0.66086227
v -4.80444622 4.55815268 4.99632692
v -4.99615908 4.99836349 -2.75755811
v -4.88681412 4.73336458 -4.83472824
v 4.98647451 -3.95221806 4.91413450
v 4.87498665 -4.99763393 -1.68386352
v -4.99837446 4.86574411 -3.80917907
v -4.99963951 2.48773313 -4.28700638
v 4.99781084 2.64513445 -4.93773842
v 4.99204206 4.63764906 -4.99708605
v -4.99991512 -0.74839312 -0.54706949
v -4.94582987 4.97654772 0.38359880
f 51 190 180
f 130 164 142
f 130 42 142
f 130 203 89
f 139 95 9
f 139 34 88
f 38 206 88
f 38 34 88
f 28 109 62
f 157 150 198
f 112 51 190
f 112 51 206
f 44 79 57
f 145 150 118
f 145 157 150
f 35 190 133
f 35 207 133
f 182 207 118
f 182 150 118
f 182 150 198
f 165 190 180
f 78 79 69
f 78 207 69
f 78 79 118
f 78 207 118
f 45 130 164
f 45 130 89
f 170 151 203
f 170 130 203
f 147 130 26
f 147 130 42
f 65 44 63
f 65 44 57
f 214 65 63
f 214 65 57
f 214 79 57
f 214 200 79
f 173 186 8
f 67 139 88
f 67 139 95
f 191 139 9
f 191 139 34
f 191 29 9
f 146 95 181
f 146 29 95
f 160 95 9
f 160 29 9
f 160 29 95
f 72 38 34
f 141 51 206
f 141 38 206
f 81 51 180
f 81 38 51
f 183 207 133
f 183 182 198
f 183 182 207
f 183 190 133
f 183 112 190
f 19 145 157
f 46 206 88
f 71 79 69
f 71 200 79
f 161 79 118
f 161 145 118
f 161 44 63
f 161 44 79
f 161 19 63
f 161 19 145
f 216 207 180
f 216 165 180
f 216 35 207
f 216 35 190
f 216 165 190
f 204 91 36
f 50 45 164
f 50 164 142
f 50 45 36
f 50 75 128
f 50 204 128
f 50 204 36
f 110 45 89
f 167 45 36
f 80 50 142
f 80 50 75
f 74 95 181
f 74 59 181
f 74 59 95
f 94 214 63
f 39 214 25
f 192 214 32
f 192 214 129
f 187 214 200
f 137 92 121
f 137 201 92
f 137 201 43
f 137 39 25
f 143 173 8
f 2 148 135
f 2 10 148
f 175 173 186
f 153 186 8
f 3 148 135
f 33 191 34
f 33 72 34
f 126 146 29
f 126 12 109
f 55 203 89
f 55 72 89
f 76 72 38
f 76 81 38
f 76 170 151
f 76 170 130
f 76 130 26
f 98 38 51
f 98 141 51
f 98 141 38
f 131 106 52
f 131 136 43
f 174 112 206
f 174 46 206
f 152 71 69
f 152 71 200
f 107 80 42
f 211 37 14
f 211 207 180
f 87 110 48
f 87 110 45
f 87 167 45
f 115 42 142
f 115 80 142
f 115 80 42
f 1 19 109
f 1 123 109
f 1 94 214
f 1 123 214
f 154 52 62
f 154 109 62
f 154 123 109
f 213 123 214
f 178 214 25
f 178 99 214
f 120 214 129
f 120 187 214
f 22 136 106
f 100 137 43
f 100 137 39
f 15 117 121
f 15 137 121
f 15 189 11
f 15 137 25
f 15 189 32
f 15 214 32
f 15 99 214
f 15 178 25
f 15 178 99
f 60 92 121
f 60 117 121
f 101 48 8
f 101 30 8
f 101 30 48
f 4 30 8
f 116 175 186
f 21 2 10
f 21 175 10
f 21 116 175
f 21 116 186
f 21 2 135
f 138 175 10
f 85 10 148
f 85 138 10
f 27 48 8
f 27 153 8
f 125 27 153
f 125 153 186
f 156 126 29
f 156 126 209
f 163 191 29
f 163 21 135
f 163 21 186
f 104 3 209
f 104 53 209
f 104 163 53
f 104 3 135
f 104 163 135
f 68 28 109
f 68 126 109
f 68 3 209
f 68 126 209
f 124 33 72
f 124 163 125
f 124 33 191
f 124 163 191
f 172 55 72
f 172 76 72
f 172 55 203
f 172 151 203
f 172 76 151
f 194 131 43
f 194 131 52
f 111 136 106
f 111 131 106
f 111 131 136
f 184 12 109
f 184 126 12
f 184 146 181
f 184 126 146
f 31 67 88
f 31 46 88
f 18 184 181
f 18 113 19
f 18 19 109
f 18 184 109
f 108 113 19
f 108 18 113
f 155 174 112
f 155 174 46
f 155 108 19
f 155 157 198
f 155 183 198
f 155 19 157
f 93 152 200
f 93 69 56
f 93 152 69
f 208 37 14
f 208 86 56
f 82 107 14
f 82 208 14
f 82 208 86
f 82 187 200
f 82 120 129
f 82 120 187
f 40 212 215
f 40 107 212
f 40 107 42
f 40 215 26
f 40 147 26
f 40 147 42
f 5 189 32
f 5 192 32
f 5 192 129
f 24 211 14
f 24 211 212
f 24 107 14
f 24 107 212
f 20 211 212
f 20 215 26
f 20 212 215
f 199 207 69
f 199 197 69
f 199 197 207
f 70 211 37
f 70 211 207
f 70 197 207
f 77 69 56
f 77 197 69
f 77 208 56
f 77 208 37
f 77 70 37
f 77 70 197
f 169 189 11
f 169 189 127
f 144 87 48
f 144 87 167
f 144 167 36
f 205 94 63
f 205 1 94
f 205 19 63
f 205 1 19
f 166 39 214
f 166 213 214
f 166 100 39
f 166 100 43
f 166 194 43
f 166 194 52
f 166 154 52
f 166 213 123
f 166 154 123
f 119 169 127
f 96 117 41
f 96 60 117
f 23 30 48
f 23 102 30
f 23 144 48
f 176 117 41
f 176 4 8
f 176 4 30
f 210 85 138
f 210 176 41
f 210 175 173
f 210 138 175
f 210 143 173
f 210 143 8
f 210 176 8
f 58 3 148
f 58 22 106
f 64 58 148
f 195 110 48
f 195 27 48
f 195 110 89
f 114 53 209
f 114 156 209
f 114 156 29
f 114 163 29
f 114 163 53
f 171 125 186
f 171 163 186
f 158 28 62
f 158 68 28
f 158 68 3
f 54 72 89
f 54 124 89
f 54 124 72
f 66 124 89
f 66 124 125
f 66 125 27
f 66 195 89
f 66 195 27
f 49 183 112
f 49 155 112
f 49 155 183
f 140 155 46
f 140 108 18
f 140 155 108
f 140 59 181
f 140 18 181
f 140 59 95
f 140 31 46
f 140 67 95
f 140 31 67
f 16 188 107
f 16 107 80
f 202 82 86
f 202 86 56
f 202 93 56
f 202 82 200
f 132 188 127
f 132 188 107
f 132 82 107
f 185 211 180
f 185 20 211
f 185 81 180
f 185 76 81
f 185 76 26
f 185 20 26
f 7 23 102
f 7 23 144
f 196 15 117
f 196 119 15
f 196 117 91
f 196 119 91
f 193 119 91
f 193 204 128
f 193 204 91
f 193 119 127
f 193 188 127
f 13 15 11
f 13 119 15
f 13 169 11
f 13 119 169
f 168 58 22
f 168 22 136
f 83 96 41
f 83 201 43
f 83 136 43
f 83 168 136
f 73 163 125
f 73 171 125
f 73 171 163
f 84 58 3
f 84 158 3
f 84 58 106
f 84 158 62
f 84 52 62
f 84 106 52
f 149 193 128
f 149 193 188
f 149 75 128
f 149 80 75
f 149 16 80
f 179 202 200
f 179 202 93
f 97 189 127
f 97 132 127
f 97 5 189
f 122 144 36
f 122 7 36
f 122 7 144
f 6 7 36
f 6 91 36
f 177 7 102
f 177 7 176
f 177 102 30
f 177 176 30
f 134 64 58
f 134 168 58
f 134 83 168
f 134 83 85
f 134 85 148
f 134 64 148
f 90 96 60
f 90 83 96
f 90 60 92
f 90 201 92
f 90 83 201
f 17 210 85
f 17 83 85
f 17 210 41
f 17 83 41
f 47 16 188
f 47 149 188
f 47 149 16
f 61 93 200
f 61 179 200
f 61 179 93
f 103 132 82
f 103 97 132
f 103 82 129
f 105 7 176
f 105 6 7
f 105 6 91
f 105 117 91
f 105 176 117
f 159 103 97
f 162 97 5
f 162 159 97
f 162 5 129
f 162 103 129
f 162 159 103

